<svg width="1217" height="600" viewBox="0 0 1217 600" fill="none" xmlns="http://www.w3.org/2000/svg">
<rect x="17.5" y="0.5" width="1199" height="599" rx="4.5" fill="#D8E0FF" stroke="#6D6D6D"/>
<path d="M33.5 32.5044L27 25.5772L17 20.7815L7 25.5772L1 34.6358V43.6945L7 52.7531L17 57.016" stroke="#6D6D6D"/>
<path d="M33.5 59.6803L27 52.7531L17 47.9574L7 52.7531L1 61.8117V70.8704L7 79.929L17 84.1919" stroke="#6D6D6D"/>
<path d="M33.5 86.8561L27 79.9289L17 75.1332L7 79.9289L1 88.9875V98.0461L7 107.105L17 111.368" stroke="#6D6D6D"/>
<path d="M33.5 114.032L27 107.105L17 102.309L7 107.105L1 116.163V125.222L7 134.281L17 138.544" stroke="#6D6D6D"/>
<path d="M33.5 141.208L27 134.281L17 129.485L7 134.281L1 143.339V152.398L7 161.456L17 165.719" stroke="#6D6D6D"/>
<path d="M33.5 168.384L27 161.457L17 156.661L7 161.457L1 170.515V179.574L7 188.632L17 192.895" stroke="#6D6D6D"/>
<path d="M33.5 195.56L27 188.632L17 183.837L7 188.632L1 197.691V206.75L7 215.808L17 220.071" stroke="#6D6D6D"/>
<path d="M33.5 222.735L27 215.808L17 211.012L7 215.808L1 224.867V233.925L7 242.984L17 247.247" stroke="#6D6D6D"/>
<path d="M33.5 249.911L27 242.984L17 238.188L7 242.984L1 252.043V261.101L7 270.16L17 274.423" stroke="#6D6D6D"/>
<path d="M33.5 277.087L27 270.16L17 265.364L7 270.16L1 279.218V288.277L7 297.336L17 301.598" stroke="#6D6D6D"/>
<path d="M33.5 304.263L27 297.336L17 292.54L7 297.336L1 306.394V315.453L7 324.512L17 328.774" stroke="#6D6D6D"/>
<path d="M33.5 331.438L27 324.511L17 319.716L7 324.511L1 333.57V342.629L7 351.687L17 355.95" stroke="#6D6D6D"/>
<path d="M33.5 358.615L27 351.687L17 346.892L7 351.687L1 360.746V369.805L7 378.863L17 383.126" stroke="#6D6D6D"/>
<path d="M33.5 385.79L27 378.863L17 374.067L7 378.863L1 387.922V396.98L7 406.039L17 410.302" stroke="#6D6D6D"/>
<path d="M33.5 412.966L27 406.039L17 401.243L7 406.039L1 415.098V424.156L7 433.215L17 437.478" stroke="#6D6D6D"/>
<path d="M33.5 440.142L27 433.215L17 428.419L7 433.215L1 442.274V451.332L7 460.391L17 464.654" stroke="#6D6D6D"/>
<path d="M33.5 467.318L27 460.391L17 455.595L7 460.391L1 469.449V478.508L7 487.567L17 491.829" stroke="#6D6D6D"/>
<path d="M33.5 494.494L27 487.566L17 482.771L7 487.566L1 496.625V505.684L7 514.742L17 519.005" stroke="#6D6D6D"/>
<path d="M33.5 521.67L27 514.743L17 509.947L7 514.743L1 523.801V532.86L7 541.918L17 546.181" stroke="#6D6D6D"/>
<path d="M33.5 548.845L27 541.918L17 537.123L7 541.918L1 550.977V560.036L7 569.094L17 573.357" stroke="#6D6D6D"/>
</svg>
