<svg width="1217" height="563" viewBox="0 0 1217 563" fill="none" xmlns="http://www.w3.org/2000/svg">
<rect x="17" width="1200" height="563" rx="5" fill="#FFF2E3"/>
<path d="M33.5 20.5L27 14L17 9.5L7 14L1 22.5V31L7 39.5L17 43.5" stroke="black"/>
<path d="M33.5 46L27 39.5L17 35L7 39.5L1 48V56.5L7 65L17 69" stroke="black"/>
<path d="M33.5 71.5L27 65L17 60.5L7 65L1 73.5V82L7 90.5L17 94.5" stroke="black"/>
<path d="M33.5 97L27 90.5L17 86L7 90.5L1 99V107.5L7 116L17 120" stroke="black"/>
<path d="M33.5 122.5L27 116L17 111.5L7 116L1 124.5V133L7 141.5L17 145.5" stroke="black"/>
<path d="M33.5 148L27 141.5L17 137L7 141.5L1 150V158.5L7 167L17 171" stroke="black"/>
<path d="M33.5 173.5L27 167L17 162.5L7 167L1 175.5V184L7 192.5L17 196.5" stroke="black"/>
<path d="M33.5 199L27 192.5L17 188L7 192.5L1 201V209.5L7 218L17 222" stroke="black"/>
<path d="M33.5 224.5L27 218L17 213.5L7 218L1 226.5V235L7 243.5L17 247.5" stroke="black"/>
<path d="M33.5 250L27 243.5L17 239L7 243.5L1 252V260.5L7 269L17 273" stroke="black"/>
<path d="M33.5 275.5L27 269L17 264.5L7 269L1 277.5V286L7 294.5L17 298.5" stroke="black"/>
<path d="M33.5 301L27 294.5L17 290L7 294.5L1 303V311.5L7 320L17 324" stroke="black"/>
<path d="M33.5 326.5L27 320L17 315.5L7 320L1 328.5V337L7 345.5L17 349.5" stroke="black"/>
<path d="M33.5 352L27 345.5L17 341L7 345.5L1 354V362.5L7 371L17 375" stroke="black"/>
<path d="M33.5 377.5L27 371L17 366.5L7 371L1 379.5V388L7 396.5L17 400.5" stroke="black"/>
<path d="M33.5 403L27 396.5L17 392L7 396.5L1 405V413.5L7 422L17 426" stroke="black"/>
<path d="M33.5 428.5L27 422L17 417.5L7 422L1 430.5V439L7 447.5L17 451.5" stroke="black"/>
<path d="M33.5 454L27 447.5L17 443L7 447.5L1 456V464.5L7 473L17 477" stroke="black"/>
<path d="M33.5 479.5L27 473L17 468.5L7 473L1 481.5V490L7 498.5L17 502.5" stroke="black"/>
<path d="M33.5 505L27 498.5L17 494L7 498.5L1 507V515.5L7 524L17 528" stroke="black"/>
</svg>
