<svg width="1217" height="563" viewBox="0 0 1217 563" fill="none" xmlns="http://www.w3.org/2000/svg">
<rect x="17" width="1200" height="563" rx="5" fill="white"/>
<path d="M33.5 30.5L27 24L17 19.5L7 24L1 32.5V41L7 49.5L17 53.5" stroke="black"/>
<path d="M33.5 56L27 49.5L17 45L7 49.5L1 58V66.5L7 75L17 79" stroke="black"/>
<path d="M33.5 81.5L27 75L17 70.5L7 75L1 83.5V92L7 100.5L17 104.5" stroke="black"/>
<path d="M33.5 107L27 100.5L17 96L7 100.5L1 109V117.5L7 126L17 130" stroke="black"/>
<path d="M33.5 132.5L27 126L17 121.5L7 126L1 134.5V143L7 151.5L17 155.5" stroke="black"/>
<path d="M33.5 158L27 151.5L17 147L7 151.5L1 160V168.5L7 177L17 181" stroke="black"/>
<path d="M33.5 183.5L27 177L17 172.5L7 177L1 185.5V194L7 202.5L17 206.5" stroke="black"/>
<path d="M33.5 209L27 202.5L17 198L7 202.5L1 211V219.5L7 228L17 232" stroke="black"/>
<path d="M33.5 234.5L27 228L17 223.5L7 228L1 236.5V245L7 253.5L17 257.5" stroke="black"/>
<path d="M33.5 260L27 253.5L17 249L7 253.5L1 262V270.5L7 279L17 283" stroke="black"/>
<path d="M33.5 285.5L27 279L17 274.5L7 279L1 287.5V296L7 304.5L17 308.5" stroke="black"/>
<path d="M33.5 311L27 304.5L17 300L7 304.5L1 313V321.5L7 330L17 334" stroke="black"/>
<path d="M33.5 336.5L27 330L17 325.5L7 330L1 338.5V347L7 355.5L17 359.5" stroke="black"/>
<path d="M33.5 362L27 355.5L17 351L7 355.5L1 364V372.5L7 381L17 385" stroke="black"/>
<path d="M33.5 387.5L27 381L17 376.5L7 381L1 389.5V398L7 406.5L17 410.5" stroke="black"/>
<path d="M33.5 413L27 406.5L17 402L7 406.5L1 415V423.5L7 432L17 436" stroke="black"/>
<path d="M33.5 438.5L27 432L17 427.5L7 432L1 440.5V449L7 457.5L17 461.5" stroke="black"/>
<path d="M33.5 464L27 457.5L17 453L7 457.5L1 466V474.5L7 483L17 487" stroke="black"/>
<path d="M33.5 489.5L27 483L17 478.5L7 483L1 491.5V500L7 508.5L17 512.5" stroke="black"/>
<path d="M33.5 515L27 508.5L17 504L7 508.5L1 517V525.5L7 534L17 538" stroke="black"/>
</svg>
